<svg width="261" height="90" viewBox="0 0 261 90" fill="none" xmlns="http://www.w3.org/2000/svg">
<path d="M32.0903 22.5415L7.07251 21.7814V1.23779H54.6562L32.0903 22.5415Z" fill="#F2F2F2"/>
<path d="M76.1561 58.8727C76.1561 64.928 74.4767 70.26 71.1181 74.8566C67.7595 79.4654 63.2364 83.0692 57.549 85.6923C51.8737 88.3032 45.5 89.6147 38.452 89.6147C29.9085 89.6147 22.4802 87.9598 16.1799 84.6381C9.87949 81.3285 4.48625 76.0945 0 68.9606L18.7909 56.1393C20.2005 58.5418 21.9042 60.6011 23.8899 62.2926C25.8878 63.9964 28.0821 65.3448 30.4846 66.3377C32.887 67.3305 35.5469 67.8331 38.452 67.8331C41.026 67.8331 43.3057 67.502 45.3037 66.8401C47.2894 66.1782 48.8954 65.1609 50.0966 63.788C51.2978 62.4152 51.8984 60.7358 51.8984 58.75C51.8984 56.5927 51.2363 54.8767 49.9003 53.5897C48.5642 52.3026 46.8974 51.371 44.8626 50.7949C42.8279 50.2188 40.6093 49.9247 38.2069 49.9247C37.0424 49.9247 35.8043 50.0228 34.4683 50.2311C33.1445 50.4395 31.8941 50.7337 30.7297 51.1014C29.5652 51.4814 28.4867 51.9596 27.4938 52.5357L21.7694 38.5988L38.2556 22.7499H38.2434L61.0057 1.26245H68.8506L73.3 11.8408L51.9843 32.078C53.6145 32.4212 55.2325 32.8869 56.8137 33.4998C60.5032 34.9094 63.8005 36.8338 66.7056 39.2853C69.6106 41.7368 71.9149 44.6419 73.6187 48.0005C75.3102 51.359 76.1683 54.9871 76.1683 58.885L76.1561 58.8727Z" fill="#F2F2F2"/>
<path d="M260.668 1.25024H227.904L210.155 23.9021L192.406 1.25024H159.629L193.767 44.8012L159.629 88.3644H192.406L210.155 65.7126L227.904 88.3644H260.668L226.543 44.8012L260.668 1.25024Z" fill="#F2F2F2"/>
<path d="M136.475 88.3401C132.639 89.1858 128.447 89.6026 123.911 89.6026C119.376 89.6026 115.012 89.1736 111.09 88.3155C107.339 87.5065 103.919 86.3054 100.818 84.6996C100.524 84.5525 100.242 84.4053 99.9478 84.2459C93.439 80.679 88.5115 75.5311 85.202 68.8139C81.8802 62.0968 80.2253 54.0926 80.2253 44.8014C80.2253 35.5102 81.7086 27.4201 85.202 20.7888C85.6555 19.9308 86.1337 19.1095 86.624 18.3128C93.5985 7.17069 108.075 3.18708 119.609 9.51195C119.658 9.53647 119.707 9.56107 119.756 9.59784C121.178 10.3823 122.489 11.2402 123.727 12.2085C127.368 15.0033 130.224 18.5579 132.393 22.9461C132.393 22.9461 132.393 22.9584 132.393 22.9707C129.991 21.5978 127.16 20.9238 123.911 20.9238C120.491 20.9238 117.513 21.6347 115 23.0688C115.012 23.0443 115.025 23.0074 115.049 22.9707C113.272 23.9758 111.727 25.3365 110.403 27.0893C107.204 31.1956 105.611 37.1037 105.611 44.8259C105.611 46.7258 105.721 48.503 105.93 50.17C106.457 57.2181 108.05 63.4452 110.71 68.8385C114.032 75.5556 118.898 80.7036 125.333 84.2705C128.618 86.0969 132.295 87.4575 136.34 88.3401C136.377 88.3401 136.426 88.3523 136.463 88.3646L136.475 88.3401Z" fill="#F2F2F2"/>
<path d="M110.955 1.26256C114.791 0.416791 118.984 0 123.519 0C128.054 0 132.418 0.429073 136.34 1.2871C140.091 2.09609 143.511 3.29727 146.612 4.903C146.906 5.05009 147.188 5.19733 147.482 5.35668C153.991 8.92361 158.919 14.0716 162.228 20.7887C165.55 27.5058 167.205 35.5101 167.205 44.8013C167.205 54.0924 165.721 62.1825 162.228 68.8138C161.775 69.6719 161.296 70.4931 160.806 71.2899C153.832 82.4319 139.355 86.4156 127.821 80.0907C127.772 80.0662 127.723 80.0416 127.674 80.0048C126.252 79.2203 124.941 78.3624 123.703 77.3941C120.062 74.5994 117.206 71.0447 115.037 66.6565C115.037 66.6565 115.037 66.6442 115.037 66.632C117.439 68.0048 120.271 68.6789 123.519 68.6789C126.939 68.6789 129.917 67.9679 132.43 66.5338C132.418 66.5583 132.405 66.5952 132.381 66.632C134.158 65.6268 135.703 64.2661 137.027 62.5133C140.226 58.407 141.819 52.4989 141.819 44.7767C141.819 42.8768 141.709 41.0996 141.5 39.4326C140.973 32.3845 139.38 26.1575 136.72 20.7641C133.398 14.047 128.532 8.89907 122.097 5.33214C118.812 3.50577 115.135 2.1451 111.09 1.26256C111.053 1.26256 111.004 1.25028 110.967 1.23802L110.955 1.26256Z" fill="#F2F2F2"/>
</svg>
